<svg xmlns="http://www.w3.org/2000/svg" width="16.7" height="16.704" viewBox="0 0 16.7 16.704">
  <path id="Icon_ionic-ios-settings" data-name="Icon ionic-ios-settings" d="M19.821,12.85a2.149,2.149,0,0,1,1.379-2,8.518,8.518,0,0,0-1.031-2.483,2.178,2.178,0,0,1-.874.187,2.144,2.144,0,0,1-1.961-3.018A8.492,8.492,0,0,0,14.855,4.5a2.147,2.147,0,0,1-4.01,0A8.518,8.518,0,0,0,8.362,5.531,2.144,2.144,0,0,1,6.4,8.549a2.107,2.107,0,0,1-.874-.187A8.706,8.706,0,0,0,4.5,10.849a2.148,2.148,0,0,1,0,4.01,8.518,8.518,0,0,0,1.031,2.483,2.145,2.145,0,0,1,2.831,2.831A8.568,8.568,0,0,0,10.849,21.2a2.143,2.143,0,0,1,4,0,8.518,8.518,0,0,0,2.483-1.031,2.147,2.147,0,0,1,2.831-2.831A8.568,8.568,0,0,0,21.2,14.859,2.159,2.159,0,0,1,19.821,12.85Zm-6.932,3.475a3.479,3.479,0,1,1,3.479-3.479A3.478,3.478,0,0,1,12.889,16.325Z" transform="translate(-4.5 -4.5)" fill="#151834"/>
</svg>
